<svg id="Bold" enable-background="new 0 0 24 24" height="512" viewBox="0 0 24 24" width="512" xmlns="http://www.w3.org/2000/svg"><path d="m21.25 2c.414 0 .75.336.75.75v18.5c0 .414-.336.75-.75.75h-18.5c-.414 0-.75-.336-.75-.75v-18.5c0-.414.336-.75.75-.75zm0-2h-18.5c-1.517 0-2.75 1.233-2.75 2.75v18.5c0 1.517 1.233 2.75 2.75 2.75h18.5c1.517 0 2.75-1.233 2.75-2.75v-18.5c0-1.517-1.233-2.75-2.75-2.75z"/><path d="m17.25 13.25h-2.47l.476-2.5h1.994c.553 0 1-.448 1-1s-.447-1-1-1h-1.613l.345-1.813c.104-.542-.253-1.066-.795-1.169-.551-.105-1.066.253-1.17.795l-.416 2.187h-1.964l.345-1.813c.104-.542-.253-1.066-.795-1.169-.551-.105-1.066.253-1.17.795l-.416 2.187h-2.851c-.553 0-1 .448-1 1s.447 1 1 1h2.47l-.476 2.5h-1.994c-.553 0-1 .448-1 1s.447 1 1 1h1.613l-.345 1.813c-.104.542.253 1.066.795 1.169.556.103 1.068-.261 1.17-.795l.417-2.187h1.964l-.345 1.813c-.104.542.253 1.066.795 1.169.556.103 1.068-.261 1.17-.795l.417-2.187h2.851c.553 0 1-.448 1-1s-.449-1-1.002-1zm-4.506 0h-1.964l.476-2.5h1.964z"/></svg>